# xmcd
# Copyright (C) 1995-1998 Ti Kan
#
# Track frame offsets:
#       150
#       20097
#       37363
#       54204
#       67050
#       81905
#       99310
#       113359
#       130441
#       146693
#       173407
#       187292
#       204582
#
# Disc length: 3438 seconds
#
# Revision: 0
# Processed by: cddbd v1.5.2PL0 Copyright (c) Steve Scherf et al.
# Submitted via: CD-Import v1.0
#
DISCID=bc0d6c0d
DTITLE=Alenko - Silence... On Tourne!
DYEAR=08
DGENRE=
TTITLE0=Dimanche
TTITLE1=Je Suis
TTITLE2=L'insatiable Du Swingblackbigbangboogie
TTITLE3=Pourquoi Tu Mens?
TTITLE4=Un Peu Déçu
TTITLE5=En Rose
TTITLE6=Et Le Monde Tourne
TTITLE7=Le Mot Que Tu Préfères
TTITLE8=Avant De M'en Aller
TTITLE9=Personne
TTITLE10=Les Abus Désabusent
TTITLE11=Ne Change Rien
TTITLE12=Sur Les Marches De Marrakech
EXTD=
EXTT0=
EXTT1=
EXTT2=
EXTT3=
EXTT4=
EXTT5=
EXTT6=
EXTT7=
EXTT8=
EXTT9=
EXTT10=
EXTT11=
EXTT12=
PLAYORDER=
